<svg id="lock" xmlns="http://www.w3.org/2000/svg" xmlns:xlink="http://www.w3.org/1999/xlink" width="14.856" height="19.808" viewBox="0 0 14.856 19.808">
  <defs>
    <linearGradient id="linear-gradient" x1="0.5" y1="1" x2="0.5" y2="0.5" gradientUnits="objectBoundingBox">
      <stop offset="0" stop-color="#040c8d"/>
      <stop offset="1" stop-color="#2eaff1"/>
    </linearGradient>
  </defs>
  <g id="Group_3" data-name="Group 3" transform="translate(0 0)">
    <path id="Path_5" data-name="Path 5" d="M78.443,7.428H77.205V5.777a5.777,5.777,0,0,0-11.555,0V7.428H64.413A.412.412,0,0,0,64,7.841V18.157a1.652,1.652,0,0,0,1.651,1.651H77.205a1.652,1.652,0,0,0,1.651-1.651V7.841A.412.412,0,0,0,78.443,7.428Zm-5.78,8.621a.413.413,0,0,1-.41.458H70.6a.413.413,0,0,1-.41-.458l.26-2.341a1.633,1.633,0,0,1-.675-1.327,1.651,1.651,0,0,1,3.3,0,1.633,1.633,0,0,1-.675,1.327Zm2.066-8.621h-6.6V5.777a3.3,3.3,0,1,1,6.6,0Z" transform="translate(-64)" fill="url(#linear-gradient)"/>
  </g>
</svg>
